PathFileType	4	(X/Y/Z)
DataRate	CameraRate	NumFrames	NumMarkers	Units	OrigDataRate	OrigDataStartFrame	OrigNumFrames
120	120	4	142	mm	120	415	553	
Frame#	Time	 STRN			 T1			 T8			 T10			 T12			 C7			 CLAV			 LANK			 RANK			 LANI			 RANI			 LASI			 RASI			 LPSI			 RPSI			 LSHO			 RSHO			 LTOE			 RTOE			 RHEE			 LHEE			 LKNE			 RKNE			 LKNI			 RKNI			 RIWR			 LIWR			 RELB			 LELB			 RELBIN			 LELBIN			 LOWR			 ROWR			 RCLAV			 LCLAV			 RFHD			 LBHD			 LFHD			 RBHD			 LMT1			 LMT5			 RMT1			 RMT5			 Tracking_L5			 Tracking_L4			 Tracking_L3			 Tracking_L2			 Tracking_L1			 Tracking_T11			 Tracking_T9			 Tracking_T7			 Tracking_T6			 Tracking_T5			 Tracking_T4			 Tracking_T3			 Tracking_T2			 rthumb			 rindex			 rmiddle			 rring			 rpinky			 lthumb			 lindex			 lmiddle			 lring			 lpinky			 ROOT			 Spine1			 Spine2			 Spine3			 LHIPJ			 RHIPJ			 LKJC			 RKJC			 LAJC			 RAJC			 LFOOT			 RFOOT			 NECK			 LCOL			 RCOL			 HEAD			 LSHOULDER			 RSHOULDER			 LELC			 RELC			 LWRIST			 RWRIST			 left_index1			 left_index2			 left_index3			 left_middle1			 left_middle2			 left_middle3			 left_pinky1			 left_pinky2			 left_pinky3			 left_ring1			 left_ring2			 left_ring3			 left_thumb1			 left_thumb2			 left_thumb3			 right_index1			 right_index2			 right_index3			 right_middle1			 right_middle2			 right_middle3			 right_pinky1			 right_pinky2			 right_pinky3			 right_ring1			 right_ring2			 right_ring3			 right_thumb1			 right_thumb2			 right_thumb3			 MASI			 MPSI			 MHIPJ			 CENTER			 Virtual_LWRIST			 Virtual_RWRIST			 Virtual_LAJC			 Virtual_RAJC			 Virtual_LKJC			 Virtual_RKJC			 Virtual_LELC			 Virtual_RELC			 Virtual_Ground_RAJC			 Virtual_Ground_LAJC			 Virtual_Ground_RFOOT			 Virtual_Ground_LFOOT			 Virtual_Ground_RTOE			 Virtual_Ground_LTOE			 Virtual_Ground_RMT1			 Virtual_Ground_LMT1			 Virtual_Ground_RMT5			 Virtual_Ground_LMT5			 Virtual_Ground_RHEE			 Virtual_Ground_LHEE		
		X1	Y1	Z1	X2	Y2	Z2	X3	Y3	Z3	X4	Y4	Z4	X5	Y5	Z5	X6	Y6	Z6	X7	Y7	Z7	X8	Y8	Z8	X9	Y9	Z9	X10	Y10	Z10	X11	Y11	Z11	X12	Y12	Z12	X13	Y13	Z13	X14	Y14	Z14	X15	Y15	Z15	X16	Y16	Z16	X17	Y17	Z17	X18	Y18	Z18	X19	Y19	Z19	X20	Y20	Z20	X21	Y21	Z21	X22	Y22	Z22	X23	Y23	Z23	X24	Y24	Z24	X25	Y25	Z25	X26	Y26	Z26	X27	Y27	Z27	X28	Y28	Z28	X29	Y29	Z29	X30	Y30	Z30	X31	Y31	Z31	X32	Y32	Z32	X33	Y33	Z33	X34	Y34	Z34	X35	Y35	Z35	X36	Y36	Z36	X37	Y37	Z37	X38	Y38	Z38	X39	Y39	Z39	X40	Y40	Z40	X41	Y41	Z41	X42	Y42	Z42	X43	Y43	Z43	X44	Y44	Z44	X45	Y45	Z45	X46	Y46	Z46	X47	Y47	Z47	X48	Y48	Z48	X49	Y49	Z49	X50	Y50	Z50	X51	Y51	Z51	X52	Y52	Z52	X53	Y53	Z53	X54	Y54	Z54	X55	Y55	Z55	X56	Y56	Z56	X57	Y57	Z57	X58	Y58	Z58	X59	Y59	Z59	X60	Y60	Z60	X61	Y61	Z61	X62	Y62	Z62	X63	Y63	Z63	X64	Y64	Z64	X65	Y65	Z65	X66	Y66	Z66	X67	Y67	Z67	X68	Y68	Z68	X69	Y69	Z69	X70	Y70	Z70	X71	Y71	Z71	X72	Y72	Z72	X73	Y73	Z73	X74	Y74	Z74	X75	Y75	Z75	X76	Y76	Z76	X77	Y77	Z77	X78	Y78	Z78	X79	Y79	Z79	X80	Y80	Z80	X81	Y81	Z81	X82	Y82	Z82	X83	Y83	Z83	X84	Y84	Z84	X85	Y85	Z85	X86	Y86	Z86	X87	Y87	Z87	X88	Y88	Z88	X89	Y89	Z89	X90	Y90	Z90	X91	Y91	Z91	X92	Y92	Z92	X93	Y93	Z93	X94	Y94	Z94	X95	Y95	Z95	X96	Y96	Z96	X97	Y97	Z97	X98	Y98	Z98	X99	Y99	Z99	X100	Y100	Z100	X101	Y101	Z101	X102	Y102	Z102	X103	Y103	Z103	X104	Y104	Z104	X105	Y105	Z105	X106	Y106	Z106	X107	Y107	Z107	X108	Y108	Z108	X109	Y109	Z109	X110	Y110	Z110	X111	Y111	Z111	X112	Y112	Z112	X113	Y113	Z113	X114	Y114	Z114	X115	Y115	Z115	X116	Y116	Z116	X117	Y117	Z117	X118	Y118	Z118	X119	Y119	Z119	X120	Y120	Z120	X121	Y121	Z121	X122	Y122	Z122	X123	Y123	Z123	X124	Y124	Z124	X125	Y125	Z125	X126	Y126	Z126	X127	Y127	Z127	X128	Y128	Z128	X129	Y129	Z129	X130	Y130	Z130	X131	Y131	Z131	X132	Y132	Z132	X133	Y133	Z133	X134	Y134	Z134	X135	Y135	Z135	X136	Y136	Z136	X137	Y137	Z137	X138	Y138	Z138	X139	Y139	Z139	X140	Y140	Z140	X141	Y141	Z141	X142	Y142	Z142

415	3.4500	312.969983	-554.836810	1075.384974	323.741019	-383.907735	1374.066234	308.056086	-286.588788	1186.189413	303.540140	-285.539597	1134.528518	299.657226	-290.352643	1080.893993	325.972229	-398.607522	1385.993123	321.801215	-520.327151	1286.147118	283.810288	-227.331474	185.149044	50.523087	-334.300041	60.417149	231.528342	-257.921576	207.304329	112.854779	-326.061398	76.938421	418.261677	-465.582430	829.432130	148.893446	-479.019165	849.138379	343.983173	-248.392224	904.877603	222.460702	-256.296337	920.098484	464.089364	-452.154666	1320.218563	182.794079	-467.251599	1338.678122	303.043991	-348.839045	47.882412	113.623172	-500.681043	-5.449322	78.108758	-263.417393	2.899024	214.962229	-160.704687	173.799843	461.721241	-541.198969	416.182727	57.353780	-537.987947	427.305609	354.774922	-565.930486	411.284477	169.972137	-527.600825	407.976329	156.219229	-566.937625	850.507855	436.155230	-567.830324	905.621707	-1.076281	-426.543295	1006.027341	584.170640	-363.631487	970.121801	61.574519	-365.767211	983.016968	507.211149	-316.359073	953.574479	441.851944	-547.303796	849.442840	133.033693	-534.062326	802.636087	247.193620	-507.871509	1305.034161	398.764610	-500.678003	1293.684959	292.399555	-558.278143	1571.092010	404.405832	-434.671462	1593.520284	395.111114	-564.603388	1564.076304	303.333849	-426.466823	1597.670674	286.306173	-316.014469	91.629714	334.178388	-259.497225	87.555915	100.858808	-451.801509	14.822694	22.263825	-441.363752	1.285645	288.475692	-270.806402	950.199246	291.237742	-281.198472	975.426614	294.241339	-289.798230	1004.686713	295.581192	-293.315053	1029.990911	297.557145	-292.373180	1054.703593	301.481038	-287.743092	1107.208371	305.901736	-285.218477	1161.288142	309.641302	-289.832145	1208.729386	313.231111	-300.991148	1248.777151	315.503061	-314.797163	1280.499458	318.323165	-338.806987	1321.141124	320.183605	-354.387194	1342.702508	321.939051	-368.957609	1359.329224	287.683487	-601.431131	801.825106	290.735424	-614.054084	751.486659	283.295929	-598.442793	728.298187	269.271135	-579.523563	726.899505	246.996939	-559.456348	719.802082	308.051884	-631.676674	899.454176	294.337153	-648.962617	863.894343	290.436685	-641.579747	839.266300	302.128315	-621.989310	829.670370	319.711208	-604.660571	811.339915	281.532407	-394.695729	840.991080	296.069205	-351.462722	965.385318	310.130030	-409.485668	1085.680246	311.254889	-429.572880	1135.003328	332.761943	-374.888033	753.086746	208.680987	-389.121026	757.240534	417.660862	-545.886815	421.662688	99.812135	-528.489828	419.124037	243.306458	-241.967723	180.106848	94.257295	-328.391671	52.175555	315.164357	-279.616803	65.170139	61.655164	-458.448231	-8.288530	316.466302	-452.234000	1345.134974	392.879725	-438.713014	1245.128989	238.249257	-438.442767	1256.762505	331.069827	-505.792081	1421.827197	519.829690	-422.553241	1202.117562	116.523072	-457.857043	1236.664176	546.735585	-335.793972	960.988879	28.596342	-391.310751	996.250987	431.538731	-559.917569	870.797396	152.383268	-549.906313	816.230059	364.936471	-645.329237	870.331705	338.363081	-664.687395	866.060972	316.262215	-657.607496	863.928020	365.318805	-648.638785	845.030725	337.629944	-661.707103	835.751295	314.559639	-652.964950	834.752738	376.363873	-615.081728	809.650600	357.284456	-618.164480	803.061426	338.491261	-612.181067	804.623187	371.888548	-632.503927	823.844850	344.749898	-643.490493	819.324851	321.967185	-634.574413	821.668804	387.460560	-588.126063	890.864849	359.868079	-601.350367	899.731219	340.838224	-620.833397	901.562750	223.182023	-622.771919	779.281974	248.772800	-636.425197	761.616886	268.416554	-625.474393	754.831731	215.272903	-619.938612	753.340840	239.820614	-626.253188	733.528733	260.543227	-613.953948	728.792548	193.017438	-579.939425	731.221914	209.573179	-577.479422	719.573200	227.208033	-568.822622	718.024492	201.815084	-599.866390	738.585770	226.741835	-605.065525	723.415673	248.154402	-592.824280	721.680164	202.115208	-574.766457	820.551753	233.396441	-582.911789	818.233132	255.634487	-597.263992	809.575260	283.577561	-472.300798	839.285254	283.221938	-252.344280	912.488043	270.721465	-382.004529	755.163640	283.399750	-362.322539	875.886649	439.003587	-557.567060	877.532274	144.626461	-550.499976	826.571971	257.669315	-242.626525	196.226686	81.688933	-330.180719	68.677785	408.248082	-553.564727	413.733602	113.662958	-532.794386	417.640969	545.690894	-339.995280	961.848140	30.249119	-396.155253	994.522154	81.688933	-739.163160	68.677785	257.669315	-739.163160	196.226686	61.655164	-739.163160	-8.288530	315.164357	-739.163160	65.170139	113.623172	-739.163160	-5.449322	303.043991	-739.163160	47.882412	100.858808	-739.163160	14.822694	286.306173	-739.163160	91.629714	22.263825	-739.163160	1.285645	334.178388	-739.163160	87.555915	78.108758	-739.163160	2.899024	214.962229	-739.163160	173.799843
416	3.4583	311.507523	-555.406094	1074.685812	321.559131	-384.897470	1373.648763	306.898266	-287.412733	1185.855627	302.530318	-286.295533	1134.195924	298.751324	-291.044950	1080.545664	323.704213	-399.602532	1385.533571	319.496512	-521.208048	1285.630345	268.155038	-231.595546	185.522079	50.052617	-334.322006	60.418725	217.049047	-262.994736	209.233880	112.359352	-326.347589	77.080607	417.931437	-465.524793	828.468978	148.271069	-479.771584	848.775089	342.885762	-248.827323	904.402196	221.444890	-257.025570	919.743240	461.869001	-453.813821	1320.201755	180.602372	-468.060076	1337.896585	285.456538	-353.822082	48.589349	113.245837	-500.672221	-5.396904	77.950932	-263.557732	2.985834	198.002845	-166.222662	175.665379	457.451463	-540.717423	414.045751	55.080328	-538.334727	427.280188	350.945234	-566.994369	411.302090	167.676792	-528.447270	407.843828	154.758796	-567.132533	850.492597	433.166176	-570.699155	906.850517	-3.214086	-426.900804	1005.547166	582.332075	-366.918504	970.020413	59.374575	-365.951151	982.406974	505.645573	-319.275856	953.143656	439.457864	-550.678432	850.546360	131.158084	-534.603238	802.593231	244.964629	-508.608758	1304.273129	396.381021	-501.929522	1293.505073	289.376587	-559.136033	1570.489049	401.639014	-435.701430	1592.952967	392.107964	-565.625668	1563.569903	300.583452	-427.307427	1596.975088	269.404590	-320.889652	92.482388	316.260695	-263.684720	86.655140	100.275345	-451.905847	14.860867	21.797692	-441.485494	1.083730	287.628710	-271.407694	949.762046	290.443540	-281.814128	974.990726	293.449879	-290.439427	1004.257560	294.770896	-293.979675	1029.591799	296.696484	-293.050826	1054.323196	300.527006	-288.461804	1106.874585	304.827452	-286.010504	1160.953999	308.391213	-290.685445	1208.399057	311.804354	-301.896542	1248.455524	313.931286	-315.753698	1280.166745	316.528469	-339.812487	1320.773602	318.246752	-355.408311	1342.308521	319.879860	-369.966954	1358.921766	286.571920	-600.101292	801.490307	289.634973	-612.788796	751.196206	281.931847	-597.331166	727.955699	267.633170	-578.555524	726.535380	245.075613	-558.786511	719.479322	304.289579	-633.016586	900.200725	290.664047	-650.477052	864.747047	287.074596	-643.248796	839.936852	299.062341	-623.884678	830.247462	317.049414	-606.886983	811.899245	280.629009	-395.175278	840.486825	295.248419	-352.037847	964.904547	308.947086	-410.197943	1085.175037	309.875399	-430.406123	1134.452820	331.663162	-375.133216	752.521992	207.628146	-389.707685	756.859422	413.776666	-546.000421	420.329213	97.580560	-529.030204	419.105709	227.695957	-246.892989	181.531668	93.742542	-328.598440	52.317321	296.867102	-284.298778	64.879954	61.173502	-458.543122	-8.404674	314.140260	-453.144163	1344.597459	391.011804	-439.838588	1244.914174	236.335933	-439.077765	1255.904555	328.324139	-506.885767	1421.239972	518.175006	-424.899906	1202.091455	114.633895	-458.671451	1235.834122	545.018494	-338.846803	960.702837	26.406294	-391.494364	995.706797	428.887457	-563.063443	871.952116	150.659293	-550.272644	816.168666	361.228824	-647.641599	871.671259	334.451258	-666.704476	867.347956	312.458724	-659.369230	864.971697	361.775994	-651.175737	846.403718	334.002525	-663.979232	837.008715	311.052173	-654.960036	835.744500	373.527676	-618.067920	810.828626	354.465544	-620.970547	804.108858	335.736513	-614.740670	805.463791	368.719369	-635.308921	825.134754	341.483265	-645.996273	820.485532	318.795413	-636.777639	822.564423	384.298056	-590.546131	891.896784	356.471062	-603.348732	900.648415	337.184876	-622.577071	902.490318	222.284153	-622.296453	779.162288	247.999370	-635.654747	761.452436	267.482758	-624.466419	754.592836	214.268684	-619.614065	753.237784	238.841116	-625.651717	733.370066	259.391576	-613.097310	728.553891	191.442713	-579.945207	731.105328	207.933769	-577.295780	719.406545	225.452065	-568.416953	717.793167	200.514793	-599.743843	738.482237	225.464612	-604.652464	723.253369	246.713892	-592.141449	721.436083	200.717047	-574.485958	820.400000	232.093573	-582.234740	818.010569	254.489839	-596.317589	809.318423	283.101253	-472.648188	838.622034	282.165326	-252.926446	912.072718	269.645654	-382.420450	754.690707	282.633290	-362.787317	875.347376	436.312020	-560.688794	878.698438	142.958440	-550.867885	826.542914	242.602043	-247.295141	197.377980	81.205985	-330.334798	68.749666	404.198349	-553.855896	412.673920	111.378560	-533.390999	417.562008	543.988824	-343.097180	961.582035	28.080244	-396.425977	993.977070	81.205985	-739.163160	68.749666	242.602043	-739.163160	197.377980	61.173502	-739.163160	-8.404674	296.867102	-739.163160	64.879954	113.245837	-739.163160	-5.396904	285.456538	-739.163160	48.589349	100.275345	-739.163160	14.860867	269.404590	-739.163160	92.482388	21.797692	-739.163160	1.083730	316.260695	-739.163160	86.655140	77.950932	-739.163160	2.985834	198.002845	-739.163160	175.665379
417	3.4667	310.285926	-556.054473	1074.349403	319.600880	-385.748744	1373.525620	305.843621	-288.219839	1185.764670	301.581055	-287.063032	1134.153366	297.844142	-291.748017	1080.539703	321.652174	-400.475323	1385.408878	317.457676	-522.018850	1285.494685	253.965765	-235.963643	185.744599	49.746495	-334.359467	60.293213	204.024628	-268.143594	210.846379	112.019457	-326.579183	77.082232	417.640418	-465.460360	827.975154	147.771671	-480.975598	848.893762	341.546476	-249.249786	904.203355	220.214933	-257.947475	919.705749	459.850669	-455.341220	1320.581555	178.690895	-468.724102	1337.535262	269.979030	-359.103143	49.441352	113.071211	-500.793755	-5.275355	77.896960	-263.744891	2.866759	182.539269	-171.916127	177.050844	453.922838	-539.842486	412.326217	53.179841	-538.260818	427.291960	347.958624	-567.738652	411.495090	165.750355	-528.720021	407.817334	153.490633	-567.498505	851.013422	430.528730	-573.546708	908.537745	-4.836699	-427.073717	1005.499363	580.936968	-370.324820	970.438540	57.766911	-366.031557	982.247531	504.601598	-322.268933	953.113794	437.323570	-554.047585	852.106571	129.762530	-535.158098	803.062022	243.001878	-509.265184	1303.912997	394.249260	-503.074646	1293.685079	286.480129	-559.948146	1570.164919	398.940474	-436.708689	1592.805147	389.229536	-566.621125	1563.424706	297.901928	-428.124130	1596.644044	254.452944	-325.998008	93.360320	300.200880	-268.094420	85.869685	99.936478	-452.079415	14.938190	21.552870	-441.690862	0.929012	286.591083	-272.027820	949.672818	289.490253	-282.415152	974.917829	292.541087	-291.050136	1004.192710	293.883055	-294.624716	1029.563665	295.792341	-293.729395	1054.312825	299.602956	-289.195716	1106.858730	303.833842	-286.801815	1160.883069	307.261705	-291.503578	1208.296776	310.528874	-302.726001	1248.346090	312.536269	-316.607147	1280.051470	314.936578	-340.688527	1320.636749	316.525728	-356.283337	1342.162728	318.043649	-370.827049	1358.781934	285.684407	-599.374056	802.294254	288.942307	-612.048328	751.983106	281.148344	-596.643925	728.694141	266.666919	-577.953458	727.232456	243.939683	-558.364093	720.152557	300.839961	-634.105444	901.871622	287.164181	-651.761413	866.561472	283.790380	-644.703686	841.569066	296.070904	-625.564754	831.733823	314.411014	-608.928859	813.315988	279.734612	-395.813376	840.427935	294.406801	-352.584928	964.807928	307.927132	-410.965145	1084.991932	308.694959	-431.259811	1134.236932	330.513895	-375.572801	752.361119	206.551075	-390.678287	756.939232	410.630167	-545.741975	419.323325	95.662691	-529.102266	419.091016	213.624537	-251.950324	182.699576	93.442179	-328.748405	52.246705	280.552834	-289.256901	64.715341	60.965773	-458.729506	-8.447097	312.055886	-453.925699	1344.405770	389.362723	-440.887541	1245.024204	234.647244	-439.665139	1255.398273	325.804681	-507.851303	1420.998335	516.783834	-427.175939	1202.559352	112.934880	-459.406227	1235.535860	543.803513	-342.002958	960.878313	24.777213	-391.515851	995.583475	426.535755	-566.188574	873.555303	149.297848	-550.769627	816.652894	357.706547	-649.817228	873.707712	330.685765	-668.543875	869.428456	308.808684	-660.925150	866.884530	358.319342	-653.584063	848.475337	330.413103	-666.083574	839.064479	307.596713	-656.757891	837.613106	370.693117	-620.961547	812.663555	351.623178	-623.658776	805.880785	332.976818	-617.157280	807.092905	365.579933	-638.005674	827.099323	338.218898	-648.354471	822.417736	315.652549	-638.803244	824.308813	381.477267	-592.869699	893.534124	353.434980	-605.205655	902.268767	333.874434	-624.146879	904.190838	221.637726	-622.133970	779.759824	247.509226	-635.253012	762.098789	266.908377	-623.888612	755.290031	213.656738	-619.504988	753.819168	238.325730	-625.312269	734.002531	258.775294	-612.573862	729.240477	190.531045	-580.024242	731.661618	207.024127	-577.221513	720.001459	224.466965	-568.187416	718.433022	199.761003	-599.747002	739.045858	224.787042	-604.425132	723.869622	245.929107	-591.725945	722.108066	199.557737	-574.543297	820.980370	231.006637	-582.013369	818.656027	253.545612	-595.892251	810.004771	282.706045	-473.217979	838.434458	280.880705	-253.598630	911.954552	268.532485	-383.125544	754.650176	281.793375	-363.408305	875.194505	433.926150	-563.797146	880.322158	141.626582	-551.328301	827.037722	228.995197	-252.053618	198.295489	80.882976	-330.469325	68.687722	400.940731	-553.790569	411.910653	109.465098	-533.490419	417.554647	542.769283	-346.296877	961.776167	26.465106	-396.552637	993.873447	80.882976	-739.163160	68.687722	228.995197	-739.163160	198.295489	60.965773	-739.163160	-8.447097	280.552834	-739.163160	64.715341	113.071211	-739.163160	-5.275355	269.979030	-739.163160	49.441352	99.936478	-739.163160	14.938190	254.452944	-739.163160	93.360320	21.552870	-739.163160	0.929012	300.200880	-739.163160	85.869685	77.896960	-739.163160	2.866759	182.539269	-739.163160	177.050844
418	3.4750	309.387892	-556.740344	1074.485779	317.852557	-386.486620	1373.793721	304.913998	-289.007127	1186.025858	300.727278	-287.846178	1134.474397	297.002375	-292.492688	1080.914021	319.815457	-401.239425	1385.696411	315.681189	-522.769749	1285.798311	241.514251	-240.322620	185.992688	49.448431	-334.316760	60.260568	192.683026	-273.248166	212.283045	111.694083	-326.633096	77.166945	417.507619	-465.361685	827.896833	147.523046	-482.505292	849.433541	340.172112	-249.697730	904.390872	218.970627	-259.083480	920.097709	458.054006	-456.679314	1321.382046	176.974148	-469.201773	1337.506890	256.821215	-364.432961	50.453994	112.992927	-500.816286	-5.027619	77.780992	-263.813555	2.823624	168.864951	-177.625507	178.172976	451.226085	-538.713455	411.132962	51.769540	-537.944734	427.430183	345.860571	-568.214476	411.930770	164.321482	-528.563380	407.971025	152.552471	-568.018854	851.761758	428.173870	-576.381743	910.567284	-6.346210	-427.525610	1005.692720	580.044925	-373.881906	971.197128	56.165904	-366.395593	982.225478	504.098594	-325.391859	953.465998	435.224384	-557.345688	854.013681	128.632352	-535.936654	803.745449	241.257325	-509.842932	1303.971410	392.386168	-504.111469	1294.299364	283.702850	-560.769498	1570.224643	396.364003	-437.793225	1593.256712	386.466533	-567.655444	1563.737750	295.340449	-428.984880	1596.852303	241.684854	-331.135422	94.338745	286.309302	-272.568196	85.359246	99.702463	-452.134788	15.142473	21.391585	-441.818923	0.908408	285.553008	-272.739649	949.979603	288.553506	-283.096164	975.238025	291.661501	-291.723460	1004.517913	293.035448	-295.320958	1029.925346	294.938475	-294.454336	1054.691672	298.760682	-289.960712	1107.214689	302.949756	-287.590533	1161.170483	306.273133	-292.287290	1208.542109	309.416741	-303.494811	1248.580813	311.315060	-317.377806	1280.285239	313.531131	-341.457427	1320.860982	315.000027	-357.037663	1342.389345	316.409171	-371.566683	1359.024286	285.179168	-598.550916	803.360283	288.680524	-611.200213	753.037393	280.777067	-595.870316	729.701459	266.082674	-577.301323	728.202105	243.146077	-557.937264	721.080542	297.769815	-635.307252	904.443383	283.865243	-653.111458	869.305253	280.563921	-646.189213	844.188988	293.065637	-627.251267	834.179223	311.622113	-610.957146	815.631628	279.006988	-396.555543	840.787292	293.719769	-353.196263	965.116858	307.156861	-411.752075	1085.224748	307.732016	-432.100505	1134.450197	329.469323	-376.063168	752.596617	205.604568	-391.866297	757.464647	408.303171	-545.214891	418.735504	94.202682	-528.866112	419.205129	201.335192	-257.000178	183.762938	93.182877	-328.744441	52.228782	266.521782	-294.278920	64.798802	60.845912	-458.814740	-8.348134	310.204238	-454.620779	1344.646811	387.936652	-441.862494	1245.561481	233.185291	-440.218687	1255.324721	323.524475	-508.665323	1421.231389	515.596628	-429.263085	1203.470945	111.464113	-459.945619	1235.502243	543.133676	-345.328361	961.415470	23.199037	-391.857177	995.645463	424.313575	-569.248021	875.520408	148.237258	-551.432431	817.363501	354.423285	-651.988029	876.333594	327.162772	-670.399368	872.209609	305.382818	-662.521064	869.622946	354.969978	-655.948639	851.129353	326.899856	-668.160141	841.828406	304.203242	-658.555031	840.322316	367.733389	-623.751998	815.069795	348.625720	-626.255691	808.318913	330.064714	-619.508028	809.494495	362.413466	-640.622437	829.634309	334.919304	-650.655508	825.046301	312.477976	-640.803337	826.880693	378.932625	-595.203698	895.723760	350.741476	-607.115984	904.566646	330.942273	-625.791311	906.640828	221.433759	-621.995211	780.618608	247.489139	-634.826183	763.016343	266.781658	-623.250127	756.261408	213.489726	-619.439721	754.659355	238.269269	-624.971211	734.901786	258.592248	-612.010896	730.196834	189.995393	-580.199540	732.462227	206.486389	-577.213585	720.844686	223.834738	-567.991376	719.324052	199.418843	-599.825382	739.860415	224.531665	-604.226172	724.744737	245.540008	-591.299117	723.041892	198.739424	-574.665368	821.805716	230.272710	-581.795037	819.556653	252.981454	-595.426083	810.955465	282.515332	-473.933488	838.665187	279.571369	-254.390605	912.244290	267.536946	-383.964732	755.030632	281.043351	-364.162046	875.454739	431.699127	-566.863716	882.290483	140.592411	-551.977754	827.753603	217.098638	-256.785393	199.137866	80.571257	-330.474928	68.713756	398.543328	-553.463966	411.531866	108.045511	-533.254057	417.700604	542.071760	-349.636883	962.331563	24.909847	-396.960601	993.959099	80.571257	-739.163160	68.713756	217.098638	-739.163160	199.137866	60.845912	-739.163160	-8.348134	266.521782	-739.163160	64.798802	112.992927	-739.163160	-5.027619	256.821215	-739.163160	50.453994	99.702463	-739.163160	15.142473	241.684854	-739.163160	94.338745	21.391585	-739.163160	0.908408	286.309302	-739.163160	85.359246	77.780992	-739.163160	2.823624	168.864951	-739.163160	178.172976
